<svg width="394" height="258" viewBox="0 0 394 258" fill="none" xmlns="http://www.w3.org/2000/svg">
<path d="M171.858 256.867C265.806 256.867 341.966 241.523 341.966 222.595C341.966 203.667 265.806 188.323 171.858 188.323C77.91 188.323 1.75 203.667 1.75 222.595C1.75 241.523 77.91 256.867 171.858 256.867Z" fill="#EBF8F1" stroke="black" stroke-opacity="0.85" stroke-width="2" stroke-miterlimit="10"/>
<path d="M298.517 239.676L286.916 205.432L286.239 203.727L283.835 197.666L283.092 195.792L252.867 119.616L218.848 166.074H124.424L90.2203 119.616L60.3704 195.838L59.6387 197.708L57.2835 203.727L56.7847 204.999L44.682 240.864C44.3041 241.846 44.549 241.208 43.5513 244.215C46.1695 244.822 48.9027 245.414 51.7447 245.988C83.8198 252.452 126.477 256.008 171.861 256.008C217.245 256.008 259.902 252.449 291.977 245.988C294.816 245.417 297.543 244.825 300.159 244.218C298.732 240.247 299.294 241.785 298.523 239.676H298.517Z" fill="#F0F2F5"/>
<path d="M135.2 216.412C137.592 214.021 137.592 210.145 135.2 207.754C132.808 205.364 128.929 205.364 126.537 207.754C124.145 210.145 124.145 214.021 126.537 216.412C128.929 218.803 132.808 218.803 135.2 216.412Z" fill="black" fill-opacity="0.85"/>
<path d="M218.801 213.478C219.578 210.187 217.539 206.89 214.247 206.113C210.954 205.336 207.655 207.374 206.878 210.665C206.101 213.956 208.14 217.253 211.433 218.029C214.725 218.806 218.024 216.768 218.801 213.478Z" fill="black" fill-opacity="0.85"/>
<path d="M135.2 216.412C137.592 214.021 137.592 210.145 135.2 207.754C132.808 205.364 128.929 205.364 126.537 207.754C124.145 210.145 124.145 214.021 126.537 216.412C128.929 218.803 132.808 218.803 135.2 216.412Z" stroke="black" stroke-opacity="0.85" stroke-width="2" stroke-miterlimit="10"/>
<path d="M218.801 213.478C219.578 210.187 217.539 206.89 214.247 206.113C210.954 205.336 207.655 207.374 206.878 210.665C206.101 213.956 208.14 217.253 211.433 218.029C214.725 218.806 218.024 216.768 218.801 213.478Z" stroke="black" stroke-opacity="0.85" stroke-width="2" stroke-miterlimit="10"/>
<path d="M118.026 219.491H143.71M200.006 219.491H225.689" stroke="black" stroke-opacity="0.85" stroke-width="2" stroke-miterlimit="10" stroke-linecap="round"/>
<path d="M166.188 246.745C164.39 245.738 165.105 243 167.165 243H176.835C178.895 243 179.61 245.738 177.812 246.745L172.977 249.453C172.37 249.793 171.63 249.793 171.023 249.453L166.188 246.745Z" fill="black" fill-opacity="0.85" stroke="black" stroke-opacity="0.85" stroke-width="2" stroke-miterlimit="10"/>
<path d="M172 256.184V249.007" stroke="black" stroke-opacity="0.85" stroke-width="2" stroke-miterlimit="10"/>
<path d="M42.7407 240.867L84.9325 133.126C87.2294 127.261 95.09 126.228 98.8243 131.301L122.026 162.82C123.534 164.868 125.925 166.077 128.469 166.077H214.79C217.34 166.077 219.738 164.861 221.244 162.803L244.314 131.296C248.032 126.219 255.885 127.223 258.205 133.072L300.975 240.867" stroke="black" stroke-opacity="0.85" stroke-width="2" stroke-miterlimit="10"/>
<path d="M328.455 210.997C327.841 209.97 327.095 208.997 326.197 208.094C324.758 206.643 322.94 205.365 320.664 204.323C317.492 202.869 314.551 202.546 311.83 203.081C310.811 203.28 309.819 203.6 308.861 204.029C295.198 210.145 287.733 238.117 284.876 248.197C287.292 247.762 289.665 247.315 291.975 246.85C306.868 243.849 318.729 240.341 327.064 236.561C330.369 228.623 332.872 218.401 328.455 211.001V210.997Z" fill="#F0F2F5" stroke="black" stroke-opacity="0.85" stroke-width="2" stroke-miterlimit="10"/>
<path d="M307.854 233.352L323.829 77.8535" stroke="black" stroke-opacity="0.85" stroke-width="2" stroke-miterlimit="10"/>
<mask id="path-10-inside-1_71_14995" fill="white">
<path fill-rule="evenodd" clip-rule="evenodd" d="M368.763 9.39439C376.823 10.6605 384.874 11.9961 392.92 13.3649L392.923 13.3679C393.347 13.4392 393.324 13.9335 393.054 14.1488C393.054 14.1696 393.052 14.1913 393.049 14.214C392.372 19.4566 391.698 24.6962 391.024 29.9388C390.427 34.5816 389.829 39.2244 389.231 43.8672C388.633 48.51 388.035 53.1528 387.438 57.7956C386.836 62.4626 386.235 67.1303 385.635 71.798C385.034 76.4658 384.433 81.1335 383.831 85.8005C383.826 85.8386 383.818 85.8742 383.806 85.9074C383.785 86.1112 383.643 86.2839 383.378 86.2507C382.911 86.1919 382.444 86.1325 381.976 86.073L381.958 86.0707C381.494 86.0116 381.03 85.9525 380.566 85.8941C372.947 84.9302 365.328 83.9572 357.709 82.9782C350.2 82.0151 342.693 81.0467 335.184 80.078L333.821 79.9021C329.793 79.3824 325.764 78.8619 321.735 78.3414C317.707 77.8209 313.678 77.3005 309.649 76.7807C301.713 75.7564 293.777 74.7351 285.84 73.7168C278.242 72.7438 270.641 71.7738 263.041 70.8129C262.673 70.7662 262.539 70.3736 262.645 70.1194C262.646 69.6583 262.648 69.1988 262.651 68.737C262.681 64.2287 262.787 59.8443 262.968 55.2151C263.15 50.5858 263.407 45.9566 263.727 41.3335C264.054 36.6469 264.45 31.9633 264.912 27.2887C265.366 22.7018 265.91 17.9699 266.485 13.5522C267.059 9.13452 267.703 4.7259 268.432 0.32936H268.435C268.473 0.0955059 268.64 -0.00248423 268.819 0.00210337C268.836 0.000632184 268.852 -8.23229e-05 268.87 7.53742e-06C269.889 0.00605089 270.905 0.0181376 271.92 0.0302243C280.035 0.135983 288.144 0.459302 296.244 0.963922C304.328 1.46552 312.404 2.15144 320.464 2.97938C328.533 3.80732 336.585 4.78332 344.624 5.86205C352.684 6.94381 360.73 8.13435 368.763 9.39439ZM382.989 85.2951C383.645 80.2211 384.297 75.1498 384.95 70.0757C385.544 65.4529 386.14 60.8302 386.735 56.2075C387.335 51.5446 387.936 46.8817 388.535 42.2188C389.137 37.5517 389.738 32.8839 390.339 28.216C390.94 23.5484 391.541 18.8808 392.142 14.214C392.145 14.1924 392.149 14.1716 392.154 14.1517C383.32 12.651 374.479 11.1893 365.624 9.82045C349.619 7.34267 333.561 5.16707 317.441 3.58371C301.426 2.0098 285.348 1.03076 269.252 0.909236C269.183 1.32532 269.115 1.74139 269.048 2.15747C268.338 6.56912 267.712 10.9959 267.153 15.4287C266.575 20.0186 266.073 24.5874 265.632 29.2196C265.191 33.8518 264.819 38.4901 264.513 43.1344C264.208 47.7455 263.972 52.3626 263.809 56.9797C263.656 61.3083 263.566 65.6396 263.553 69.9711C263.851 70.0089 264.149 70.0468 264.447 70.0848C264.916 70.1445 265.384 70.2041 265.852 70.263C273.471 71.2269 280.746 72.1576 288.709 73.1789C296.217 74.1417 303.721 75.1099 311.229 76.0784L312.597 76.255C317.087 76.8342 321.615 77.4191 326.117 78.0007C329.694 78.4628 333.255 78.9229 336.769 79.3764C344.706 80.4007 352.642 81.422 360.578 82.4403C368.047 83.3967 375.518 84.3502 382.989 85.2951Z"/>
</mask>
<path fill-rule="evenodd" clip-rule="evenodd" d="M368.763 9.39439C376.823 10.6605 384.874 11.9961 392.92 13.3649L392.923 13.3679C393.347 13.4392 393.324 13.9335 393.054 14.1488C393.054 14.1696 393.052 14.1913 393.049 14.214C392.372 19.4566 391.698 24.6962 391.024 29.9388C390.427 34.5816 389.829 39.2244 389.231 43.8672C388.633 48.51 388.035 53.1528 387.438 57.7956C386.836 62.4626 386.235 67.1303 385.635 71.798C385.034 76.4658 384.433 81.1335 383.831 85.8005C383.826 85.8386 383.818 85.8742 383.806 85.9074C383.785 86.1112 383.643 86.2839 383.378 86.2507C382.911 86.1919 382.444 86.1325 381.976 86.073L381.958 86.0707C381.494 86.0116 381.03 85.9525 380.566 85.8941C372.947 84.9302 365.328 83.9572 357.709 82.9782C350.2 82.0151 342.693 81.0467 335.184 80.078L333.821 79.9021C329.793 79.3824 325.764 78.8619 321.735 78.3414C317.707 77.8209 313.678 77.3005 309.649 76.7807C301.713 75.7564 293.777 74.7351 285.84 73.7168C278.242 72.7438 270.641 71.7738 263.041 70.8129C262.673 70.7662 262.539 70.3736 262.645 70.1194C262.646 69.6583 262.648 69.1988 262.651 68.737C262.681 64.2287 262.787 59.8443 262.968 55.2151C263.15 50.5858 263.407 45.9566 263.727 41.3335C264.054 36.6469 264.45 31.9633 264.912 27.2887C265.366 22.7018 265.91 17.9699 266.485 13.5522C267.059 9.13452 267.703 4.7259 268.432 0.32936H268.435C268.473 0.0955059 268.64 -0.00248423 268.819 0.00210337C268.836 0.000632184 268.852 -8.23229e-05 268.87 7.53742e-06C269.889 0.00605089 270.905 0.0181376 271.92 0.0302243C280.035 0.135983 288.144 0.459302 296.244 0.963922C304.328 1.46552 312.404 2.15144 320.464 2.97938C328.533 3.80732 336.585 4.78332 344.624 5.86205C352.684 6.94381 360.73 8.13435 368.763 9.39439ZM382.989 85.2951C383.645 80.2211 384.297 75.1498 384.95 70.0757C385.544 65.4529 386.14 60.8302 386.735 56.2075C387.335 51.5446 387.936 46.8817 388.535 42.2188C389.137 37.5517 389.738 32.8839 390.339 28.216C390.94 23.5484 391.541 18.8808 392.142 14.214C392.145 14.1924 392.149 14.1716 392.154 14.1517C383.32 12.651 374.479 11.1893 365.624 9.82045C349.619 7.34267 333.561 5.16707 317.441 3.58371C301.426 2.0098 285.348 1.03076 269.252 0.909236C269.183 1.32532 269.115 1.74139 269.048 2.15747C268.338 6.56912 267.712 10.9959 267.153 15.4287C266.575 20.0186 266.073 24.5874 265.632 29.2196C265.191 33.8518 264.819 38.4901 264.513 43.1344C264.208 47.7455 263.972 52.3626 263.809 56.9797C263.656 61.3083 263.566 65.6396 263.553 69.9711C263.851 70.0089 264.149 70.0468 264.447 70.0848C264.916 70.1445 265.384 70.2041 265.852 70.263C273.471 71.2269 280.746 72.1576 288.709 73.1789C296.217 74.1417 303.721 75.1099 311.229 76.0784L312.597 76.255C317.087 76.8342 321.615 77.4191 326.117 78.0007C329.694 78.4628 333.255 78.9229 336.769 79.3764C344.706 80.4007 352.642 81.422 360.578 82.4403C368.047 83.3967 375.518 84.3502 382.989 85.2951Z" fill="black" fill-opacity="0.85"/>
<path d="M392.92 13.3649L394.341 11.9579L393.889 11.501L393.255 11.3932L392.92 13.3649ZM368.763 9.39439L369.073 7.41862L369.073 7.41855L368.763 9.39439ZM392.923 13.3679L391.501 14.7749L391.955 15.2331L392.591 15.3401L392.923 13.3679ZM393.054 14.1488L391.808 12.5841L391.056 13.1827L391.054 14.1438L393.054 14.1488ZM393.049 14.214L391.066 13.9541L391.066 13.9577L393.049 14.214ZM391.024 29.9388L393.007 30.1939V30.1939L391.024 29.9388ZM387.438 57.7956L389.422 58.0513L389.422 58.0507L387.438 57.7956ZM385.635 71.798L383.651 71.5427L385.635 71.798ZM383.831 85.8005L381.847 85.5447L381.847 85.549L383.831 85.8005ZM383.806 85.9074L381.922 85.237L381.841 85.4631L381.816 85.7019L383.806 85.9074ZM383.378 86.2507L383.128 88.235L383.129 88.2351L383.378 86.2507ZM381.976 86.073L381.723 88.0568L381.724 88.057L381.976 86.073ZM381.958 86.0707L382.212 84.0868L382.211 84.0867L381.958 86.0707ZM380.566 85.8941L380.315 87.8783L380.316 87.8785L380.566 85.8941ZM357.709 82.9782L357.964 80.9945L357.964 80.9944L357.709 82.9782ZM335.184 80.078L335.44 78.0944H335.44L335.184 80.078ZM333.821 79.9021L333.565 81.8857H333.565L333.821 79.9021ZM309.649 76.7807L309.393 78.7643L309.393 78.7643L309.649 76.7807ZM285.84 73.7168L286.095 71.733L286.094 71.733L285.84 73.7168ZM263.041 70.8129L262.789 72.797L262.79 72.7971L263.041 70.8129ZM262.645 70.1194L264.491 70.888L264.644 70.5205L264.645 70.1224L262.645 70.1194ZM262.651 68.737L260.651 68.7236L260.651 68.7258L262.651 68.737ZM262.968 55.2151L260.97 55.1367L260.97 55.1367L262.968 55.2151ZM263.727 41.3335L261.732 41.1945L261.732 41.1952L263.727 41.3335ZM264.912 27.2887L266.903 27.4857L266.903 27.4855L264.912 27.2887ZM266.485 13.5522L268.468 13.8101L266.485 13.5522ZM268.432 0.32936V-1.67064H266.736L266.459 0.00236696L268.432 0.32936ZM268.435 0.32936V2.32936H270.135L270.408 0.651679L268.435 0.32936ZM268.819 0.00210337L268.768 2.00145L268.884 2.00441L268.999 1.99402L268.819 0.00210337ZM268.87 7.53742e-06L268.882 -1.99996L268.88 -1.99997L268.87 7.53742e-06ZM271.92 0.0302243L271.946 -1.96961L271.944 -1.96963L271.92 0.0302243ZM296.244 0.963922L296.119 2.96005L296.12 2.96008L296.244 0.963922ZM320.464 2.97938L320.26 4.96891L320.26 4.96893L320.464 2.97938ZM344.624 5.86205L344.89 3.87983L344.89 3.87982L344.624 5.86205ZM384.95 70.0757L382.966 69.8205L382.966 69.8206L384.95 70.0757ZM382.989 85.2951L382.738 87.2793L384.717 87.5295L384.973 85.5512L382.989 85.2951ZM386.735 56.2075L388.718 56.4629V56.4629L386.735 56.2075ZM388.535 42.2188L386.552 41.9631L386.552 41.9637L388.535 42.2188ZM390.339 28.216L392.323 28.4713V28.4713L390.339 28.216ZM392.142 14.214L394.126 14.4697L394.127 14.4651L392.142 14.214ZM392.154 14.1517L394.093 14.6417L394.624 12.5425L392.489 12.1799L392.154 14.1517ZM365.624 9.82045L365.318 11.7969L365.319 11.797L365.624 9.82045ZM317.441 3.58371L317.245 5.57412L317.245 5.57414L317.441 3.58371ZM269.252 0.909236L269.267 -1.09071L267.558 -1.10361L267.279 0.58258L269.252 0.909236ZM269.048 2.15747L271.023 2.47547L271.023 2.47367L269.048 2.15747ZM267.153 15.4287L265.168 15.1783L265.168 15.179L267.153 15.4287ZM265.632 29.2196L267.623 29.4093L265.632 29.2196ZM264.513 43.1344L266.509 43.2666L266.509 43.2656L264.513 43.1344ZM263.809 56.9797L261.81 56.909L261.81 56.9092L263.809 56.9797ZM263.553 69.9711L261.553 69.9649L261.547 71.733L263.301 71.9552L263.553 69.9711ZM264.447 70.0848L264.195 72.0688H264.195L264.447 70.0848ZM265.852 70.263L266.103 68.2788L266.102 68.2786L265.852 70.263ZM288.709 73.1789L288.455 75.1627H288.455L288.709 73.1789ZM311.229 76.0784L310.973 78.062H310.973L311.229 76.0784ZM312.597 76.255L312.341 78.2385L312.597 76.255ZM326.117 78.0007L326.374 76.0172L326.117 78.0007ZM336.769 79.3764L336.513 81.3599L336.769 79.3764ZM360.578 82.4403L360.324 84.4241L360.324 84.4241L360.578 82.4403ZM393.255 11.3932C385.205 10.0235 377.144 8.68643 369.073 7.41862L368.452 11.3702C376.502 12.6345 384.544 13.9686 392.584 15.3365L393.255 11.3932ZM394.344 11.9609L394.341 11.9579L391.498 14.7719L391.501 14.7749L394.344 11.9609ZM394.3 15.7134C394.958 15.1894 395.312 14.3612 395.241 13.5341C395.203 13.0895 395.035 12.587 394.652 12.1582C394.26 11.7186 393.752 11.4794 393.255 11.3956L392.591 15.3401C392.305 15.2921 391.953 15.1415 391.668 14.8213C391.392 14.512 391.28 14.1598 391.256 13.8746C391.212 13.3663 391.42 12.8928 391.808 12.5841L394.3 15.7134ZM395.032 14.4738C395.046 14.3692 395.054 14.2624 395.054 14.1538L391.054 14.1438C391.054 14.0769 391.059 14.0135 391.066 13.9541L395.032 14.4738ZM393.007 30.1939C393.682 24.9513 394.356 19.7122 395.033 14.4702L391.066 13.9577C390.389 19.2009 389.714 24.441 389.04 29.6836L393.007 30.1939ZM391.214 44.1226C391.812 39.4798 392.41 34.8369 393.007 30.1939L389.04 29.6836C388.443 34.3263 387.845 38.9689 387.247 43.6117L391.214 44.1226ZM389.422 58.0507C390.019 53.4081 390.617 48.7654 391.214 44.1226L387.247 43.6117C386.649 48.2545 386.051 52.8975 385.454 57.5405L389.422 58.0507ZM387.618 72.0534C388.219 67.3856 388.82 62.7181 389.422 58.0513L385.454 57.5399C384.853 62.207 384.252 66.8749 383.651 71.5427L387.618 72.0534ZM385.815 86.0562C386.416 81.389 387.017 76.7211 387.618 72.0534L383.651 71.5427C383.05 76.2104 382.449 80.878 381.847 85.5447L385.815 86.0562ZM385.69 86.5778C385.751 86.4069 385.793 86.2307 385.815 86.0519L381.847 85.549C381.86 85.4465 381.884 85.3416 381.922 85.237L385.69 86.5778ZM383.129 88.2351C383.767 88.3153 384.471 88.1526 385.025 87.6507C385.538 87.1867 385.746 86.5943 385.795 86.1128L381.816 85.7019C381.845 85.4242 381.971 85.0201 382.341 84.6852C382.753 84.3122 383.253 84.2194 383.627 84.2663L383.129 88.2351ZM381.724 88.057C382.191 88.1164 382.659 88.1761 383.128 88.235L383.627 84.2663C383.162 84.2078 382.696 84.1485 382.229 84.089L381.724 88.057ZM380.316 87.8785C380.779 87.9366 381.241 87.9955 381.706 88.0547L382.211 84.0867C381.747 84.0276 381.281 83.9683 380.815 83.9097L380.316 87.8785ZM357.454 84.9619C365.074 85.941 372.694 86.9142 380.315 87.8783L380.817 83.9099C373.2 82.9462 365.582 81.9734 357.964 80.9945L357.454 84.9619ZM334.928 82.0615C342.437 83.0303 349.945 83.9988 357.455 84.9619L357.964 80.9944C350.455 80.0315 342.949 79.0632 335.44 78.0944L334.928 82.0615ZM333.565 81.8857L334.928 82.0615L335.44 78.0944L334.077 77.9186L333.565 81.8857ZM321.479 80.3249C325.508 80.8454 329.537 81.3659 333.565 81.8857L334.077 77.9186C330.049 77.3989 326.02 76.8784 321.992 76.3579L321.479 80.3249ZM309.393 78.7643C313.422 79.284 317.45 79.8045 321.479 80.3249L321.992 76.3579C317.963 75.8374 313.934 75.3169 309.905 74.7972L309.393 78.7643ZM285.586 75.7005C293.521 76.7187 301.457 77.74 309.393 78.7643L309.905 74.7972C301.968 73.7728 294.032 72.7514 286.095 71.733L285.586 75.7005ZM262.79 72.7971C270.389 73.7578 277.989 74.7277 285.586 75.7006L286.094 71.733C278.496 70.7599 270.894 69.7898 263.292 68.8287L262.79 72.7971ZM260.799 69.3508C260.507 70.052 260.572 70.8131 260.867 71.42C261.194 72.0908 261.86 72.6792 262.789 72.797L263.292 68.8288C263.853 68.9 264.269 69.2688 264.463 69.668C264.627 70.0033 264.677 70.441 264.491 70.888L260.799 69.3508ZM260.651 68.7258C260.648 69.1869 260.646 69.6505 260.645 70.1163L264.645 70.1224C264.646 69.6661 264.648 69.2107 264.651 68.7483L260.651 68.7258ZM260.97 55.1367C260.788 59.7857 260.681 64.1918 260.651 68.7236L264.651 68.7505C264.681 64.2656 264.786 59.9029 264.967 55.2934L260.97 55.1367ZM261.732 41.1952C261.41 45.8366 261.152 50.4859 260.97 55.1367L264.967 55.2934C265.147 50.6858 265.403 46.0767 265.722 41.4718L261.732 41.1952ZM262.922 27.0918C262.458 31.7853 262.06 36.4882 261.732 41.1945L265.722 41.4725C266.048 36.8056 266.442 32.1413 266.903 27.4857L262.922 27.0918ZM264.501 13.2943C263.924 17.7319 263.378 22.4842 262.922 27.092L266.903 27.4855C267.354 22.9195 267.896 18.2079 268.468 13.8101L264.501 13.2943ZM266.459 0.00236696C265.726 4.42408 265.078 8.85587 264.501 13.2943L268.468 13.8101C269.04 9.41317 269.68 5.02771 270.405 0.656353L266.459 0.00236696ZM268.435 -1.67064H268.432V2.32936H268.435V-1.67064ZM268.871 -1.99724C268.408 -2.00909 267.85 -1.88992 267.354 -1.50833C266.835 -1.10904 266.552 -0.549106 266.461 0.00704075L270.408 0.651679C270.356 0.973972 270.175 1.36798 269.794 1.66096C269.437 1.93624 269.051 2.00871 268.768 2.00145L268.871 -1.99724ZM268.88 -1.99997C268.801 -2.00037 268.721 -1.99715 268.64 -1.98981L268.999 1.99402C268.95 1.99841 268.904 2.00021 268.859 1.99998L268.88 -1.99997ZM271.944 -1.96963C270.929 -1.98171 269.908 -1.99387 268.882 -1.99996L268.858 1.99997C269.87 2.00597 270.88 2.01798 271.897 2.03008L271.944 -1.96963ZM296.368 -1.03221C288.239 -1.53868 280.097 -1.86338 271.946 -1.96961L271.894 2.03005C279.973 2.13535 288.049 2.45728 296.119 2.96005L296.368 -1.03221ZM320.668 0.989846C312.585 0.159518 304.482 -0.528768 296.367 -1.03224L296.12 2.96008C304.174 3.45981 312.223 4.14336 320.26 4.96891L320.668 0.989846ZM344.89 3.87982C336.834 2.79884 328.762 1.82025 320.668 0.989823L320.26 4.96893C328.305 5.79439 336.335 6.76779 344.358 7.84429L344.89 3.87982ZM369.073 7.41855C361.028 6.15675 352.968 4.96396 344.89 3.87983L344.358 7.84428C352.401 8.92367 360.431 10.112 368.453 11.3702L369.073 7.41855ZM382.966 69.8206C382.314 74.8947 381.661 79.9655 381.006 85.0389L384.973 85.5512C385.628 80.4767 386.281 75.4049 386.933 70.3308L382.966 69.8206ZM384.751 55.952C384.156 60.5747 383.561 65.1976 382.966 69.8205L386.933 70.3308C387.528 65.7083 388.123 61.0857 388.718 56.4629L384.751 55.952ZM386.552 41.9637C385.952 46.6264 385.352 51.2891 384.751 55.952L388.718 56.4629C389.319 51.8001 389.919 47.137 390.519 42.474L386.552 41.9637ZM388.355 27.9606C387.754 32.6285 387.154 37.2962 386.552 41.9631L390.519 42.4746C391.121 37.8072 391.722 33.1392 392.323 28.4713L388.355 27.9606ZM390.159 13.9583C389.557 18.6253 388.956 23.2931 388.355 27.9606L392.323 28.4713C392.924 23.8037 393.524 19.1363 394.126 14.4697L390.159 13.9583ZM390.215 13.6616C390.19 13.7605 390.171 13.861 390.158 13.9629L394.127 14.4651C394.119 14.5237 394.108 14.5828 394.093 14.6417L390.215 13.6616ZM365.319 11.797C374.16 13.1637 382.99 14.6237 391.819 16.1234L392.489 12.1799C383.649 10.6784 374.798 9.21481 365.93 7.84392L365.319 11.797ZM317.245 5.57414C333.318 7.15279 349.337 9.32284 365.318 11.7969L365.93 7.84399C349.901 5.36251 333.805 3.18135 317.636 1.59329L317.245 5.57414ZM269.237 2.90918C285.262 3.03017 301.279 4.00501 317.245 5.57412L317.636 1.5933C301.572 0.0145941 285.434 -0.968647 269.267 -1.09071L269.237 2.90918ZM271.023 2.47367C271.089 2.06299 271.157 1.65115 271.225 1.23589L267.279 0.58258C267.21 0.999483 267.141 1.4198 267.074 1.84128L271.023 2.47367ZM269.137 15.679C269.694 11.2659 270.316 6.86189 271.023 2.47547L267.074 1.83947C266.359 6.27635 265.73 10.7258 265.168 15.1783L269.137 15.679ZM267.623 29.4093C268.063 24.7961 268.562 20.2474 269.137 15.6783L265.168 15.179C264.588 19.7898 264.084 24.3786 263.641 29.0299L267.623 29.4093ZM266.509 43.2656C266.813 38.6404 267.183 34.0216 267.623 29.4093L263.641 29.0299C263.198 33.682 262.824 38.3398 262.518 43.0032L266.509 43.2656ZM265.808 57.0504C265.97 52.4542 266.205 47.8575 266.509 43.2666L262.518 43.0022C262.211 47.6334 261.974 52.271 261.81 56.909L265.808 57.0504ZM265.553 69.9773C265.566 65.6693 265.656 61.3595 265.808 57.0502L261.81 56.9092C261.657 61.257 261.566 65.6099 261.553 69.9649L265.553 69.9773ZM264.7 68.1008C264.402 68.0629 264.103 68.0248 263.804 67.987L263.301 71.9552C263.599 71.9929 263.896 72.0308 264.195 72.0688L264.7 68.1008ZM266.102 68.2786C265.635 68.2199 265.169 68.1605 264.7 68.1008L264.195 72.0688C264.663 72.1284 265.133 72.1882 265.603 72.2474L266.102 68.2786ZM288.964 71.1952C281 70.1738 273.724 69.2429 266.103 68.2788L265.601 72.2472C273.219 73.2109 280.492 74.1414 288.455 75.1627L288.964 71.1952ZM311.484 74.0948C303.977 73.1264 296.472 72.1581 288.964 71.1952L288.455 75.1627C295.961 76.1254 303.465 77.0935 310.973 78.062L311.484 74.0948ZM326.374 76.0172C321.871 75.4356 317.343 74.8507 312.853 74.2714L312.341 78.2385C316.831 78.8178 321.359 79.4026 325.861 79.9843L326.374 76.0172ZM337.025 77.3928C333.512 76.9393 329.951 76.4793 326.374 76.0172L325.861 79.9843C329.438 80.4463 332.999 80.9064 336.513 81.3599L337.025 77.3928ZM360.833 80.4566C352.897 79.4384 344.961 78.4171 337.025 77.3928L336.513 81.3599C344.45 82.3843 352.387 83.4057 360.324 84.4241L360.833 80.4566ZM383.24 83.3109C375.77 82.3662 368.3 81.4129 360.832 80.4565L360.324 84.4241C367.793 85.3806 375.266 86.3343 382.738 87.2793L383.24 83.3109ZM381.705 88.0545L381.723 88.0568L382.23 84.0891L382.212 84.0868L381.705 88.0545ZM312.853 74.2714L311.484 74.0948L310.973 78.062L312.341 78.2385L312.853 74.2714Z" fill="black" fill-opacity="0.85" mask="url(#path-10-inside-1_71_14995)"/>
<path d="M289.027 18.0666C287.826 23.6899 286.629 29.3163 285.429 34.9396C285.157 36.2148 284.942 37.7196 285.834 38.6744C286.424 39.309 287.34 39.4993 288.189 39.6565C291.5 40.2699 294.81 40.8833 298.121 41.4967M303.636 19.2058C300.591 32.9665 297.544 46.7302 294.499 60.4909M328.455 23.841C319.025 26.1435 311.63 36.1241 310.16 45.4973C309.507 49.6763 309.939 54.366 312.827 57.4571C316.092 60.9532 321.83 61.3581 326.093 59.1825C330.356 57.0069 333.238 52.7282 334.755 48.1927C336.276 43.6571 336.597 38.8225 336.905 34.0482C337.159 30.1049 337.195 25.5815 334.269 22.9254C332.261 21.1003 329.205 20.5232 325.453 21.9676M350.852 26.3611C349.328 31.8122 347.801 37.2633 346.278 42.7114C345.821 44.337 345.44 46.1893 346.919 47.5037C348.717 49.0992 352.213 49.0327 355.148 48.8151M363.018 28.6455C359.203 40.9225 356.333 53.4957 354.438 66.2109" stroke="#08A652" stroke-width="2" stroke-linecap="round" stroke-linejoin="round"/>
</svg>
