<svg width="18" height="18" viewBox="0 0 18 18" fill="none" xmlns="http://www.w3.org/2000/svg">
<path d="M15 10.5V12.6C15 13.4401 15 13.8601 14.8365 14.181C14.6927 14.4632 14.4632 14.6927 14.181 14.8365C13.8601 15 13.4401 15 12.6 15H10.5M7.5 3H5.4C4.55992 3 4.13988 3 3.81901 3.16349C3.53677 3.3073 3.3073 3.53677 3.16349 3.81901C3 4.13988 3 4.55992 3 5.4V7.5M11.25 6.75L15.75 2.25M15.75 2.25H11.25M15.75 2.25V6.75M6.75 11.25L2.25 15.75M2.25 15.75H6.75M2.25 15.75L2.25 11.25" stroke="black" stroke-opacity="0.85" stroke-width="1.6" stroke-linecap="round" stroke-linejoin="round"/>
</svg>
