<svg width="16" height="16" viewBox="0 0 16 16" fill="none" xmlns="http://www.w3.org/2000/svg">
<g clip-path="url(#clip0_74_14998)">
<path d="M13.3333 7.99992C13.3333 10.9454 10.9455 13.3333 8.00001 13.3333M13.3333 7.99992C13.3333 5.0544 10.9455 2.66659 8.00001 2.66659M13.3333 7.99992H14.6667M8.00001 13.3333C5.05449 13.3333 2.66668 10.9454 2.66668 7.99992M8.00001 13.3333V14.6666M2.66668 7.99992C2.66668 5.0544 5.05449 2.66659 8.00001 2.66659M2.66668 7.99992H1.33334M8.00001 2.66659V1.33325M10 7.99992C10 9.10449 9.10458 9.99992 8.00001 9.99992C6.89544 9.99992 6.00001 9.10449 6.00001 7.99992C6.00001 6.89535 6.89544 5.99992 8.00001 5.99992C9.10458 5.99992 10 6.89535 10 7.99992Z" stroke="black" stroke-opacity="0.85" stroke-width="2" stroke-linecap="round" stroke-linejoin="round"/>
</g>
<defs>
<clipPath id="clip0_74_14998">
<rect width="16" height="16" fill="white"/>
</clipPath>
</defs>
</svg>
