<svg width="28" height="52" viewBox="0 0 28 52" fill="none" xmlns="http://www.w3.org/2000/svg">
<path fill-rule="evenodd" clip-rule="evenodd" d="M8.63604 0.292893C9.02656 0.683417 9.02656 1.31658 8.63604 1.70711C5.12132 5.22183 5.12132 10.9203 8.63604 14.435C9.02656 14.8256 9.02656 15.4587 8.63604 15.8492C8.24552 16.2398 7.61235 16.2398 7.22183 15.8492C2.92606 11.5535 2.92606 4.58866 7.22183 0.292893C7.61235 -0.097631 8.24552 -0.097631 8.63604 0.292893ZM21.3644 0.292893C21.7549 -0.097631 22.3881 -0.097631 22.7786 0.292893C27.0744 4.58866 27.0744 11.5535 22.7786 15.8492C22.3881 16.2398 21.7549 16.2398 21.3644 15.8492C20.9739 15.4587 20.9739 14.8256 21.3644 14.435C24.8791 10.9203 24.8791 5.22183 21.3644 1.70711C20.9739 1.31658 20.9739 0.683417 21.3644 0.292893ZM11.4647 3.12126C11.8552 3.51179 11.8552 4.14495 11.4647 4.53548C9.51207 6.4881 9.51207 9.65392 11.4647 11.6065C11.8552 11.9971 11.8552 12.6302 11.4647 13.0208C11.0742 13.4113 10.441 13.4113 10.0505 13.0208C7.3168 10.2871 7.3168 5.85493 10.0505 3.12126C10.441 2.73074 11.0742 2.73074 11.4647 3.12126ZM18.5358 3.12126C18.9263 2.73074 19.5595 2.73074 19.95 3.12126C22.6837 5.85493 22.6837 10.2871 19.95 13.0208C19.5595 13.4113 18.9263 13.4113 18.5358 13.0208C18.1453 12.6302 18.1453 11.9971 18.5358 11.6065C20.4884 9.65392 20.4884 6.4881 18.5358 4.53548C18.1453 4.14495 18.1453 3.51179 18.5358 3.12126ZM15.0002 7.07104C14.4479 7.07104 14.0002 7.51876 14.0002 8.07104C14.0002 8.62333 14.4479 9.07104 15.0002 9.07104C15.5525 9.07104 16.0002 8.62333 16.0002 8.07104C16.0002 7.51876 15.5525 7.07104 15.0002 7.07104ZM12.0002 8.07104C12.0002 6.41419 13.3434 5.07104 15.0002 5.07104C16.6571 5.07104 18.0002 6.41419 18.0002 8.07104C18.0002 9.37726 17.1654 10.4885 16.0002 10.9003V19.071C16.0002 19.0781 16.0001 19.0852 16 19.0923V38H22V35.9C19.7178 35.4367 18 33.419 18 31V25C18 22.2386 20.2386 20 23 20C25.7614 20 28 22.2386 28 25V31C28 33.419 26.2822 35.4367 24 35.9V39C24 39.5523 23.5523 40 23 40H16V45H18C18.5523 45 19 45.4477 19 46C19 46.5523 18.5523 47 18 47H12C11.4477 47 11 46.5522 11 46C11 45.4477 11.4477 45 12 45H14V36H6C5.44772 36 5 35.5523 5 35V31.9984C4.52454 31.9951 4.10898 31.9853 3.74817 31.9558C3.18608 31.9099 2.66937 31.8113 2.18404 31.564C1.43139 31.1805 0.819467 30.5686 0.435975 29.816C0.188684 29.3306 0.0901199 28.8139 0.0441947 28.2518C-2.28137e-05 27.7106 -1.23241e-05 27.0463 4.3129e-07 26.2413V23.7587C-1.23241e-05 22.9537 -2.28137e-05 22.2894 0.0441947 21.7482C0.0901199 21.1861 0.188684 20.6694 0.435975 20.184C0.819468 19.4314 1.43139 18.8195 2.18404 18.436C2.66937 18.1887 3.18608 18.0901 3.74817 18.0442C4.28936 18 4.95372 18 5.75868 18H6.24133C7.04629 18 7.71064 18 8.25183 18.0442C8.81393 18.0901 9.33063 18.1887 9.81596 18.436C10.5686 18.8195 11.1805 19.4314 11.564 20.184C11.8113 20.6694 11.9099 21.1861 11.9558 21.7482C12 22.2894 12 22.9537 12 23.7587V26.2413C12 27.0463 12 27.7106 11.9558 28.2518C11.9099 28.8139 11.8113 29.3306 11.564 29.816C11.1805 30.5686 10.5686 31.1805 9.81596 31.564C9.33063 31.8113 8.81393 31.9099 8.25183 31.9558C7.89102 31.9853 7.47547 31.9951 7 31.9984V34H14V16.5C14 16.4929 14.0001 16.4859 14.0002 16.4788V10.9003C12.835 10.4885 12.0002 9.37726 12.0002 8.07104ZM3.91104 20.0376C3.47262 20.0734 3.24842 20.1383 3.09202 20.218C2.71569 20.4097 2.40973 20.7157 2.21799 21.092C2.1383 21.2484 2.07337 21.4726 2.03755 21.911C2.00078 22.3611 2 22.9434 2 23.8V26.2C2 27.0566 2.00078 27.6389 2.03755 28.089C2.07337 28.5274 2.1383 28.7516 2.21799 28.908C2.40974 29.2843 2.7157 29.5903 3.09202 29.782C3.24842 29.8617 3.47262 29.9266 3.91104 29.9624C4.36113 29.9992 4.94342 30 5.8 30H6.2C7.05658 30 7.63887 29.9992 8.08896 29.9624C8.52738 29.9266 8.75158 29.8617 8.90798 29.782C9.2843 29.5903 9.59027 29.2843 9.78201 28.908C9.8617 28.7516 9.92663 28.5274 9.96245 28.089C9.99922 27.6389 10 27.0566 10 26.2V23.8C10 22.9434 9.99922 22.3611 9.96245 21.911C9.92663 21.4726 9.8617 21.2484 9.78201 21.092C9.59027 20.7157 9.28431 20.4097 8.90798 20.218C8.75158 20.1383 8.52738 20.0734 8.08896 20.0376C7.63887 20.0008 7.05658 20 6.2 20H5.8C4.94342 20 4.36113 20.0008 3.91104 20.0376ZM23 22C21.3431 22 20 23.3431 20 25V31C20 32.6568 21.3431 34 23 34C24.6569 34 26 32.6568 26 31V25C26 23.3431 24.6569 22 23 22ZM8.91493 42.8827C9.13784 43.388 8.90892 43.9784 8.40361 44.2013C7.55515 44.5756 6.92948 44.9979 6.52954 45.4174C6.13449 45.8318 6 46.1961 6 46.5C6 47.104 6.59225 47.9839 8.3393 48.7701C9.99248 49.514 12.3465 50 15 50C17.6535 50 20.0075 49.514 21.6607 48.7701C23.4077 47.9839 24 47.104 24 46.5C24 46.1961 23.8655 45.8318 23.4705 45.4174C23.0705 44.9979 22.4448 44.5756 21.5964 44.2013C21.0911 43.9784 20.8622 43.388 21.0851 42.8827C21.308 42.3774 21.8983 42.1485 22.4036 42.3714C23.4065 42.8138 24.2808 43.369 24.9181 44.0374C25.5602 44.7109 26 45.5451 26 46.5C26 48.3813 24.3537 49.7514 22.4814 50.5939C20.5153 51.4787 17.8693 52 15 52C12.1307 52 9.48468 51.4787 7.51857 50.5939C5.64633 49.7514 4 48.3813 4 46.5C4 45.5451 4.43984 44.7109 5.08194 44.0374C5.71916 43.369 6.59349 42.8138 7.59639 42.3714C8.10169 42.1485 8.69202 42.3774 8.91493 42.8827Z" fill="black" fill-opacity="0.85"/>
</svg>
