<svg width="22" height="46" viewBox="0 0 22 46" fill="none" xmlns="http://www.w3.org/2000/svg">
<path d="M4.63604 0.292893C5.02656 0.683417 5.02656 1.31658 4.63604 1.70711C1.12132 5.22183 1.12132 10.9203 4.63604 14.435C5.02656 14.8256 5.02656 15.4587 4.63604 15.8492C4.24552 16.2398 3.61235 16.2398 3.22183 15.8492C-1.07394 11.5535 -1.07394 4.58866 3.22183 0.292893C3.61235 -0.097631 4.24552 -0.097631 4.63604 0.292893Z" fill="black" fill-opacity="0.85"/>
<path d="M17.3644 0.292893C17.7549 -0.097631 18.3881 -0.097631 18.7786 0.292893C23.0744 4.58866 23.0744 11.5535 18.7786 15.8492C18.3881 16.2398 17.7549 16.2398 17.3644 15.8492C16.9739 15.4587 16.9739 14.8256 17.3644 14.435C20.8791 10.9203 20.8791 5.22183 17.3644 1.70711C16.9739 1.31658 16.9739 0.683417 17.3644 0.292893Z" fill="black" fill-opacity="0.85"/>
<path d="M7.4647 3.12126C7.8552 3.51179 7.8552 4.14495 7.4647 4.53548C5.51207 6.4881 5.51207 9.65392 7.4647 11.6065C7.8552 11.9971 7.8552 12.6302 7.4647 13.0208C7.0742 13.4113 6.441 13.4113 6.0505 13.0208C3.3168 10.2871 3.3168 5.85493 6.0505 3.12126C6.441 2.73074 7.0742 2.73074 7.4647 3.12126Z" fill="black" fill-opacity="0.85"/>
<path d="M14.5358 3.12126C14.9263 2.73074 15.5595 2.73074 15.95 3.12126C18.6837 5.85493 18.6837 10.2871 15.95 13.0208C15.5595 13.4113 14.9263 13.4113 14.5358 13.0208C14.1453 12.6302 14.1453 11.9971 14.5358 11.6065C16.4884 9.65392 16.4884 6.4881 14.5358 4.53548C14.1453 4.14495 14.1453 3.51179 14.5358 3.12126Z" fill="black" fill-opacity="0.85"/>
<path fill-rule="evenodd" clip-rule="evenodd" d="M8.0002 8.07104C8.0002 6.41419 9.3434 5.07104 11.0002 5.07104C12.6571 5.07104 14.0002 6.41419 14.0002 8.07104C14.0002 9.37726 13.1654 10.4885 12.0002 10.9003V16.071L12 16.0923V17.1C14.2822 17.5633 16 19.5811 16 22V28C16 30.4189 14.2822 32.4367 12 32.9V39H14C14.5523 39 15 39.4477 15 40C15 40.5523 14.5523 41 14 41H8C7.4477 41 7 40.5522 7 40C7 39.4477 7.4477 39 8 39H10V32.9C7.71777 32.4367 6 30.4189 6 28V22C6 19.5811 7.71777 17.5633 10 17.1V13.5L10.0002 13.4788V10.9003C8.835 10.4885 8.0002 9.37726 8.0002 8.07104ZM11.0002 7.07104C10.4479 7.07104 10.0002 7.51876 10.0002 8.07104C10.0002 8.62333 10.4479 9.07104 11.0002 9.07104C11.5525 9.07104 12.0002 8.62333 12.0002 8.07104C12.0002 7.51876 11.5525 7.07104 11.0002 7.07104ZM8 22C8 20.3431 9.3431 19 11 19C12.6569 19 14 20.3431 14 22V28C14 29.6569 12.6569 31 11 31C9.3431 31 8 29.6569 8 28V22Z" fill="black" fill-opacity="0.85"/>
<path d="M4.40361 38.2013C4.90892 37.9784 5.13784 37.388 4.91493 36.8827C4.69202 36.3774 4.10169 36.1485 3.59639 36.3714C2.59349 36.8138 1.71916 37.369 1.08194 38.0374C0.43984 38.7109 0 39.5451 0 40.5C0 42.3813 1.64633 43.7514 3.51857 44.5939C5.48468 45.4787 8.1307 46 11 46C13.8693 46 16.5153 45.4787 18.4814 44.5939C20.3537 43.7514 22 42.3813 22 40.5C22 39.5451 21.5602 38.7109 20.9181 38.0374C20.2808 37.369 19.4065 36.8138 18.4036 36.3714C17.8983 36.1485 17.308 36.3774 17.0851 36.8827C16.8622 37.388 17.0911 37.9784 17.5964 38.2013C18.4448 38.5756 19.0705 38.9979 19.4705 39.4174C19.8655 39.8318 20 40.1961 20 40.5C20 41.104 19.4077 41.9839 17.6607 42.7701C16.0075 43.514 13.6535 44 11 44C8.3465 44 5.99248 43.514 4.3393 42.7701C2.59225 41.9839 2 41.104 2 40.5C2 40.1961 2.13449 39.8318 2.52954 39.4174C2.92948 38.9979 3.55515 38.5756 4.40361 38.2013Z" fill="black" fill-opacity="0.85"/>
</svg>
