<svg width="60" height="50" viewBox="0 0 60 50" fill="none" xmlns="http://www.w3.org/2000/svg">
<path d="M55 21.2221C55 27.0913 52.6185 32.397 48.796 36.2403C48.7753 36.2817 48.7331 36.3239 48.6916 36.3654C43.4281 41.483 34.0188 44.7141 27.0002 42.5L23.5002 43.5L-2.64526 55.6452V55.6245L10.5557 41.5667L10.9104 41.1905L45.1255 4.72065C49.9299 8.6061 55 14.559 55 21.2221Z" fill="url(#paint0_linear_283_16093)"/>
<path d="M45.1254 4.72071L10.9111 41.1906L10.5564 41.5668L-2.64533 55.6245V55.6453L-3 55.9999L-2.5194 55.3735L-2.37355 55.1854L39.1518 1.31586C41.3245 2.13041 43.3505 3.2797 45.1254 4.72071V4.72071Z" fill="url(#paint1_linear_283_16093)"/>
<path d="M39.1518 1.31587L-2.37354 55.1854L31.7778 0C34.3681 0 36.8532 0.459081 39.151 1.31587H39.1518Z" fill="url(#paint2_linear_283_16093)"/>
<path d="M31.7779 0L-2.37343 55.1854L-2.51929 55.3735L25.24 0H31.7779Z" fill="url(#paint3_linear_283_16093)"/>
<path d="M25.2399 0L-2.5194 55.3735L-3 56L10.9111 0H25.2399Z" fill="url(#paint4_linear_283_16093)"/>
<defs>
<linearGradient id="paint0_linear_283_16093" x1="37.7499" y1="27.5161" x2="4.34776" y2="55.9529" gradientUnits="userSpaceOnUse">
<stop stop-color="#1FF483"/>
<stop offset="1" stop-color="#0AD66A"/>
</linearGradient>
<linearGradient id="paint1_linear_283_16093" x1="46.4341" y1="6.81447" x2="29.7335" y2="19.6783" gradientUnits="userSpaceOnUse">
<stop stop-color="#1FF483"/>
<stop offset="1" stop-color="#0AD66A"/>
</linearGradient>
<linearGradient id="paint2_linear_283_16093" x1="33.8317" y1="2.79992" x2="-0.92456" y2="48.3892" gradientUnits="userSpaceOnUse">
<stop stop-color="#1FF483"/>
<stop offset="1" stop-color="#0AD66A"/>
</linearGradient>
<linearGradient id="paint3_linear_283_16093" x1="27.7012" y1="1.43622" x2="21.608" y2="12.2701" gradientUnits="userSpaceOnUse">
<stop stop-color="#1FF483"/>
<stop offset="1" stop-color="#0AD66A"/>
</linearGradient>
<linearGradient id="paint4_linear_283_16093" x1="19.8887" y1="-4.32062" x2="1.83311" y2="38.7111" gradientUnits="userSpaceOnUse">
<stop stop-color="#1FF483"/>
<stop offset="1" stop-color="#0AD66A"/>
</linearGradient>
</defs>
</svg>
