<?xml version="1.0" standalone="no"?>
<!DOCTYPE svg PUBLIC "-//W3C//DTD SVG 20010904//EN"
 "http://www.w3.org/TR/2001/REC-SVG-20010904/DTD/svg10.dtd">
<svg version="1.0" xmlns="http://www.w3.org/2000/svg"
 width="960.000000pt" height="960.000000pt" viewBox="0 0 960.000000 960.000000"
 preserveAspectRatio="xMidYMid meet">
<metadata>
Created by potrace 1.14, written by Peter Selinger 2001-2017
</metadata>
<g transform="translate(0.000000,960.000000) scale(0.100000,-0.100000)"
fill="#000000" stroke="none">
<path d="M1740 8780 c-6 -11 -9 -20 -6 -20 2 0 -2 -24 -10 -52 -8 -29 -17 -62
-19 -72 -2 -10 -13 -53 -24 -95 -11 -42 -22 -87 -25 -101 -2 -14 -12 -52 -21
-85 -9 -33 -18 -67 -20 -75 -7 -30 -56 -235 -60 -250 -2 -8 -4 -16 -5 -17 -3
-3 -3 -3 -15 -58 -4 -22 -10 -44 -11 -50 -9 -30 -37 -142 -39 -155 -1 -8 -7
-33 -13 -55 -12 -41 -90 -353 -98 -390 -5 -25 -9 -41 -34 -140 -12 -44 -23
-91 -26 -105 -3 -14 -11 -46 -19 -72 -8 -27 -12 -48 -10 -48 3 0 0 -11 -5 -25
-5 -14 -12 -36 -14 -48 -3 -12 -17 -67 -31 -122 -14 -55 -28 -111 -31 -125 -3
-14 -12 -50 -20 -80 -8 -30 -18 -68 -21 -85 -7 -40 -9 -47 -16 -65 -5 -15 -18
-63 -23 -90 -1 -8 -10 -42 -18 -75 -9 -33 -18 -72 -21 -88 -2 -15 -7 -31 -9
-36 -3 -5 -8 -26 -12 -46 -3 -21 -14 -64 -25 -97 -10 -33 -18 -62 -18 -66 1
-4 0 -9 -1 -12 -1 -3 -3 -12 -5 -20 -2 -8 -17 -69 -33 -135 -17 -66 -33 -131
-36 -145 -3 -14 -10 -43 -16 -65 -6 -22 -13 -51 -16 -65 -3 -14 -8 -34 -11
-45 -4 -11 -8 -24 -9 -30 -9 -43 -16 -70 -34 -139 -11 -44 -22 -89 -24 -100
-2 -12 -9 -41 -16 -66 -7 -25 -13 -49 -14 -55 -1 -5 -5 -19 -9 -30 -3 -11 -8
-31 -11 -45 -8 -38 -12 -58 -36 -150 -26 -101 -30 -116 -37 -155 -3 -16 -8
-37 -13 -45 -4 -8 -11 -33 -15 -55 -5 -22 -9 -44 -11 -50 -13 -53 -36 -144
-39 -158 -2 -10 -7 -27 -10 -37 -3 -10 -7 -27 -10 -37 -2 -10 -20 -85 -40
-168 -21 -82 -38 -154 -39 -160 -2 -5 -8 -30 -15 -55 -7 -25 -14 -52 -16 -60
-2 -11 -31 -130 -50 -210 -1 -3 -6 -23 -13 -45 -6 -22 -13 -51 -16 -65 -7 -37
-117 -483 -123 -500 -3 -8 -7 -26 -9 -39 -2 -13 -6 -31 -10 -40 -4 -9 -8 -24
-9 -33 -2 -10 -4 -21 -5 -25 -2 -5 -4 -12 -5 -18 -1 -5 -5 -17 -8 -25 -3 -8
-15 -60 -28 -115 -12 -55 -24 -104 -27 -110 -3 -5 -7 -16 -8 -25 -1 -8 -11
-53 -23 -100 -12 -47 -23 -92 -25 -101 -3 -9 -9 -33 -14 -52 -6 -20 -7 -38 -4
-41 3 -3 1 -6 -4 -6 -5 0 -10 -8 -11 -17 -2 -26 -9 -66 -16 -83 -4 -12 -16
-59 -20 -80 0 -3 -11 -45 -24 -95 -30 -114 -29 -111 -42 -165 -7 -28 -11 -225
-11 -532 l0 -488 761 0 760 0 55 25 c30 14 59 25 64 25 6 0 10 5 10 10 0 6 6
10 13 10 7 0 39 13 72 29 33 16 89 43 125 59 36 16 100 46 143 66 43 20 83 36
88 36 5 0 9 5 9 10 0 6 3 9 8 8 7 -2 22 4 157 67 39 18 104 49 145 68 41 19
107 49 145 67 39 18 102 47 141 66 39 18 100 46 135 62 62 29 198 92 289 135
25 11 48 20 53 19 4 -1 7 2 7 8 0 6 3 9 8 8 4 -1 46 17 95 40 48 23 92 42 97
42 6 0 10 4 10 8 0 5 6 9 13 9 6 0 57 22 112 48 171 81 249 117 265 121 8 2
38 10 65 18 126 37 201 58 215 61 8 2 36 10 63 18 26 8 47 13 47 10 0 -3 6 -1
12 4 33 26 159 44 197 27 9 -4 22 -8 29 -10 36 -7 119 -27 132 -32 8 -2 25 -6
36 -8 28 -3 84 -13 109 -18 19 -4 119 -14 210 -22 53 -5 357 -5 420 0 87 6
240 23 240 26 0 1 16 3 35 5 19 1 37 3 40 5 3 1 8 2 12 1 4 0 30 4 56 10 27 5
62 12 78 14 16 2 29 4 29 5 0 1 11 3 25 6 53 9 299 75 390 104 52 16 101 30
107 30 7 0 13 4 13 8 0 5 6 9 13 9 54 2 644 268 655 295 2 4 8 8 14 8 16 0
349 208 368 230 3 3 17 13 32 23 42 27 232 180 241 194 4 7 15 13 24 13 9 0
14 3 11 6 -3 3 17 26 45 52 28 26 57 52 64 59 7 6 13 13 13 15 0 2 26 31 58
65 101 106 143 156 228 268 67 88 196 280 221 329 9 17 21 34 27 38 6 4 7 8 3
8 -5 0 0 12 11 28 93 135 285 611 326 812 3 14 10 43 15 65 5 22 12 51 15 65
24 122 35 182 40 220 4 25 8 61 11 80 11 79 16 150 20 232 1 47 5 91 9 96 3 5
3 12 -1 16 -9 9 -9 66 0 66 4 0 3 9 -3 20 -8 14 -8 20 0 20 6 0 8 5 4 12 -4 6
-9 44 -10 82 -3 66 -12 181 -14 181 -1 0 -3 11 -6 25 -3 23 -14 77 -20 106
-13 67 -61 244 -81 299 -37 105 -66 179 -75 190 -4 5 -8 17 -8 27 0 10 -4 18
-10 18 -5 0 -10 7 -10 15 0 13 -117 254 -129 265 -4 3 -15 21 -25 40 -11 19
-31 53 -45 75 -14 22 -26 42 -26 45 0 3 -12 21 -28 41 -15 20 -27 41 -27 47 0
7 -4 12 -8 12 -5 0 -15 12 -23 27 -8 15 -20 34 -27 43 -7 8 -33 42 -57 75 -25
33 -48 65 -52 70 -24 30 -89 112 -98 121 -5 6 -28 33 -50 60 -99 120 -376 403
-514 524 -41 36 -79 70 -85 75 -6 6 -36 30 -66 55 -30 25 -61 51 -69 58 -8 8
-39 32 -70 55 -31 23 -58 45 -61 48 -3 3 -57 41 -120 82 -63 42 -120 81 -127
87 -7 5 -14 10 -17 10 -2 0 -42 22 -88 48 -112 64 -323 167 -375 183 -24 6
-43 15 -43 19 0 4 -17 12 -37 18 -21 6 -72 22 -113 37 -41 15 -82 28 -90 30
-8 2 -27 8 -42 14 -16 6 -28 8 -28 5 0 -4 -6 -1 -14 5 -7 6 -26 13 -42 16 -16
2 -76 16 -134 30 -58 14 -123 28 -145 31 -22 3 -50 8 -62 10 -48 8 -80 13
-138 19 -33 4 -78 10 -100 13 -22 3 -851 7 -1842 9 l-1802 4 -11 -21z m150
-4284 c0 -2 -8 -10 -17 -17 -16 -13 -17 -12 -4 4 13 16 21 21 21 13z"/>
</g>
</svg>
